<mxfile host="www.draw.io" modified="2020-03-23T10:21:21.836Z" agent="Mozilla/5.0 (Macintosh; Intel Mac OS X 10_14_6) AppleWebKit/537.36 (KHTML, like Gecko) Chrome/80.0.3987.149 Safari/537.36" etag="QWiGq0WN1PHX_pcsqnFe" version="12.8.8" type="github">
  <diagram id="sfcnje_oKJfqM-PHsMB0" name="Page-1">
    <mxGraphModel dx="1412" dy="851" grid="1" gridSize="10" guides="1" tooltips="1" connect="1" arrows="1" fold="1" page="1" pageScale="1" pageWidth="850" pageHeight="1100" math="0" shadow="0">
      <root>
        <mxCell id="0" />
        <mxCell id="1" parent="0" />
        <mxCell id="_8DgfpnB7QlrPQuF8WHE-1" value="Client" style="shape=umlLifeline;perimeter=lifelinePerimeter;whiteSpace=wrap;html=1;container=1;collapsible=0;recursiveResize=0;outlineConnect=0;fillColor=#f8cecc;strokeColor=#b85450;" parent="1" vertex="1">
          <mxGeometry x="120" y="40" width="100" height="380" as="geometry" />
        </mxCell>
        <mxCell id="_8DgfpnB7QlrPQuF8WHE-7" value="" style="html=1;points=[];perimeter=orthogonalPerimeter;" parent="_8DgfpnB7QlrPQuF8WHE-1" vertex="1">
          <mxGeometry x="45" y="150" width="10" height="230" as="geometry" />
        </mxCell>
        <mxCell id="_8DgfpnB7QlrPQuF8WHE-24" value="" style="strokeWidth=2;html=1;shape=mxgraph.flowchart.annotation_1;align=left;pointerEvents=1;fillColor=#f8cecc;strokeColor=#FF0000;" parent="_8DgfpnB7QlrPQuF8WHE-1" vertex="1">
          <mxGeometry x="30" y="210" width="10" height="140" as="geometry" />
        </mxCell>
        <mxCell id="_8DgfpnB7QlrPQuF8WHE-2" value="Server" style="shape=umlLifeline;perimeter=lifelinePerimeter;whiteSpace=wrap;html=1;container=1;collapsible=0;recursiveResize=0;outlineConnect=0;fillColor=#d5e8d4;strokeColor=#82b366;" parent="1" vertex="1">
          <mxGeometry x="400" y="40" width="100" height="380" as="geometry" />
        </mxCell>
        <mxCell id="_8DgfpnB7QlrPQuF8WHE-3" value="" style="html=1;points=[];perimeter=orthogonalPerimeter;" parent="_8DgfpnB7QlrPQuF8WHE-2" vertex="1">
          <mxGeometry x="45" y="90" width="10" height="40" as="geometry" />
        </mxCell>
        <mxCell id="_8DgfpnB7QlrPQuF8WHE-4" value="listen" style="edgeStyle=orthogonalEdgeStyle;html=1;align=left;spacingLeft=2;endArrow=block;rounded=0;entryX=1;entryY=0;" parent="_8DgfpnB7QlrPQuF8WHE-2" target="_8DgfpnB7QlrPQuF8WHE-3" edge="1">
          <mxGeometry relative="1" as="geometry">
            <mxPoint x="50" y="70" as="sourcePoint" />
            <Array as="points">
              <mxPoint x="75" y="70" />
            </Array>
          </mxGeometry>
        </mxCell>
        <mxCell id="_8DgfpnB7QlrPQuF8WHE-11" value="" style="edgeStyle=orthogonalEdgeStyle;html=1;align=left;spacingLeft=2;endArrow=block;rounded=0;entryX=1;entryY=0;" parent="_8DgfpnB7QlrPQuF8WHE-2" target="_8DgfpnB7QlrPQuF8WHE-10" edge="1">
          <mxGeometry relative="1" as="geometry">
            <mxPoint x="55" y="150" as="sourcePoint" />
            <Array as="points">
              <mxPoint x="80" y="150" />
            </Array>
          </mxGeometry>
        </mxCell>
        <mxCell id="_8DgfpnB7QlrPQuF8WHE-14" value="accept" style="text;html=1;align=center;verticalAlign=middle;resizable=0;points=[];labelBackgroundColor=#ffffff;" parent="_8DgfpnB7QlrPQuF8WHE-11" vertex="1" connectable="0">
          <mxGeometry x="-0.2857" y="-8" relative="1" as="geometry">
            <mxPoint x="9" y="8" as="offset" />
          </mxGeometry>
        </mxCell>
        <mxCell id="_8DgfpnB7QlrPQuF8WHE-10" value="" style="html=1;points=[];perimeter=orthogonalPerimeter;" parent="_8DgfpnB7QlrPQuF8WHE-2" vertex="1">
          <mxGeometry x="45" y="170" width="15" height="210" as="geometry" />
        </mxCell>
        <mxCell id="_8DgfpnB7QlrPQuF8WHE-12" value="connect" style="html=1;verticalAlign=bottom;endArrow=block;exitX=0.9;exitY=0.113;exitDx=0;exitDy=0;exitPerimeter=0;entryX=0.067;entryY=0.095;entryDx=0;entryDy=0;entryPerimeter=0;" parent="1" source="_8DgfpnB7QlrPQuF8WHE-7" target="_8DgfpnB7QlrPQuF8WHE-10" edge="1">
          <mxGeometry width="80" relative="1" as="geometry">
            <mxPoint x="174" y="179.03999999999996" as="sourcePoint" />
            <mxPoint x="450" y="220" as="targetPoint" />
          </mxGeometry>
        </mxCell>
        <mxCell id="_8DgfpnB7QlrPQuF8WHE-20" value="request" style="html=1;verticalAlign=bottom;endArrow=block;entryX=-0.133;entryY=0.29;entryDx=0;entryDy=0;entryPerimeter=0;strokeColor=#FF0000;" parent="1" target="_8DgfpnB7QlrPQuF8WHE-10" edge="1">
          <mxGeometry width="80" relative="1" as="geometry">
            <mxPoint x="176" y="250" as="sourcePoint" />
            <mxPoint x="446" y="271.03999999999996" as="targetPoint" />
          </mxGeometry>
        </mxCell>
        <mxCell id="_8DgfpnB7QlrPQuF8WHE-21" value="receive" style="html=1;verticalAlign=bottom;endArrow=block;" parent="1" source="_8DgfpnB7QlrPQuF8WHE-2" target="_8DgfpnB7QlrPQuF8WHE-2" edge="1">
          <mxGeometry x="0.0473" width="80" relative="1" as="geometry">
            <mxPoint x="380" y="430" as="sourcePoint" />
            <mxPoint x="510" y="320" as="targetPoint" />
            <Array as="points">
              <mxPoint x="520" y="272" />
              <mxPoint x="520" y="300" />
            </Array>
            <mxPoint y="1" as="offset" />
          </mxGeometry>
        </mxCell>
        <mxCell id="_8DgfpnB7QlrPQuF8WHE-22" value="收到请求，但数据未准备完毕，开新线程处理" style="text;html=1;align=center;verticalAlign=middle;resizable=0;points=[];autosize=1;" parent="1" vertex="1">
          <mxGeometry x="420" y="300" width="260" height="20" as="geometry" />
        </mxCell>
        <mxCell id="_8DgfpnB7QlrPQuF8WHE-26" value="未收到回复，线程阻塞" style="text;html=1;align=center;verticalAlign=middle;resizable=0;points=[];autosize=1;" parent="1" vertex="1">
          <mxGeometry x="20" y="310" width="140" height="20" as="geometry" />
        </mxCell>
        <mxCell id="_8DgfpnB7QlrPQuF8WHE-27" value="response" style="html=1;verticalAlign=bottom;endArrow=block;entryX=0.9;entryY=0.848;entryDx=0;entryDy=0;entryPerimeter=0;strokeColor=#00CC00;exitX=0.067;exitY=0.971;exitDx=0;exitDy=0;exitPerimeter=0;" parent="1" source="_8DgfpnB7QlrPQuF8WHE-10" target="_8DgfpnB7QlrPQuF8WHE-7" edge="1">
          <mxGeometry width="80" relative="1" as="geometry">
            <mxPoint x="440" y="390" as="sourcePoint" />
            <mxPoint x="400" y="500" as="targetPoint" />
          </mxGeometry>
        </mxCell>
        <mxCell id="_8DgfpnB7QlrPQuF8WHE-29" value="数据准备完成，并写入到流中" style="text;html=1;align=center;verticalAlign=middle;resizable=0;points=[];autosize=1;" parent="1" vertex="1">
          <mxGeometry x="480" y="365" width="170" height="20" as="geometry" />
        </mxCell>
        <mxCell id="_8DgfpnB7QlrPQuF8WHE-30" value="read读取流中数据，线程继续执行" style="text;html=1;align=center;verticalAlign=middle;resizable=0;points=[];autosize=1;" parent="1" vertex="1">
          <mxGeometry x="10" y="390" width="200" height="20" as="geometry" />
        </mxCell>
        <mxCell id="_8DgfpnB7QlrPQuF8WHE-35" value="" style="strokeWidth=2;html=1;shape=mxgraph.flowchart.annotation_1;align=left;pointerEvents=1;direction=west;strokeColor=#00CC00;" parent="1" vertex="1">
          <mxGeometry x="465" y="330" width="15" height="90" as="geometry" />
        </mxCell>
      </root>
    </mxGraphModel>
  </diagram>
</mxfile>
